<svg width="20" height="21" viewBox="0 0 20 21" fill="none" xmlns="http://www.w3.org/2000/svg">
						<g clip-path="url(#clip0)">
							<path d="M18.5 9H17.9C17.7 7.9 17.3 6.9 16.7 6L17.1 5.5C17.7 4.9 17.7 4 17.1 3.4C16.5 2.8 15.6 2.8 15 3.4L14.5 3.9C13.6 3.3 12.6 2.9 11.5 2.7V2C11.5 1.2 10.8 0.5 10 0.5C9.2 0.5 8.5 1.2 8.5 2V2.6C7.4 2.8 6.4 3.2 5.5 3.8L5 3.4C4.4 2.8 3.5 2.8 2.9 3.4C2.3 4 2.3 5 2.9 5.5L3.4 6C2.8 6.9 2.4 7.9 2.2 9H1.5C0.7 9 0 9.7 0 10.5C0 11.3 0.7 12 1.5 12H2.1C2.3 13.1 2.7 14.1 3.3 15L2.9 15.5C2.3 16.1 2.3 17 2.9 17.6C3.2 17.9 3.6 18 4 18C4.4 18 4.8 17.9 5.1 17.6L5.6 17.1C6.5 17.7 7.5 18.1 8.6 18.3V18.9C8.6 19.7 9.3 20.4 10.1 20.4C10.9 20.4 11.6 19.7 11.6 18.9V18.3C12.7 18.1 13.7 17.7 14.6 17.1L15.1 17.6C15.4 17.9 15.8 18 16.2 18C16.6 18 17 17.9 17.3 17.6C17.9 17 17.9 16.1 17.3 15.5L16.8 15C17.4 14.1 17.8 13.1 18 12H18.6C19.4 12 20.1 11.3 20.1 10.5C20.1 9.7 19.3 9 18.5 9ZM10 15.5C7.2 15.5 5 13.3 5 10.5C5 7.7 7.2 5.5 10 5.5C12.8 5.5 15 7.7 15 10.5C15 13.3 12.8 15.5 10 15.5Z" fill="white"/>
						</g>
						<defs>
							<clipPath id="clip0">
								<rect width="20" height="20" fill="white" transform="translate(0 0.5)"/>
							</clipPath>
						</defs>
					</svg>