<svg width="50" height="46" viewBox="0 0 50 46" fill="none" xmlns="http://www.w3.org/2000/svg">
<path d="M40.9934 43.8751C40.7044 44.0191 40.4443 43.213 40.3143 43.0402C39.7652 42.3493 38.8837 42.3061 38.4935 42.9539C38.2623 43.3569 37.9589 43.7744 37.9011 44.2206C37.7855 45.0124 37.5832 45.0412 37.0919 44.4797C36.8896 44.2494 36.615 44.0767 36.4561 43.832C35.8781 42.9395 35.3868 43.3137 34.9533 43.9327C34.7943 44.1487 34.8665 44.6381 34.7076 44.7101C34.4186 44.8396 33.9273 44.8684 33.7105 44.6957C33.4504 44.4941 33.4793 43.9615 33.2337 43.7024C32.6123 43.0114 32.2222 42.6084 31.6875 44.0047C31.1384 45.4298 30.2714 45.2859 29.3321 43.8895C28.7397 43.0258 28.7541 43.0258 28.1039 43.9327C27.9305 44.1774 27.7426 44.4078 27.5259 44.6093C27.0057 45.0555 26.5288 45.3147 26.2542 44.3502C26.1531 44.0047 25.8785 43.6736 25.6184 43.4001C25.1994 42.9683 24.7659 42.9395 24.448 43.5441C24.3179 43.7888 24.3035 44.1199 24.1445 44.3214C23.4798 45.1851 23.2775 45.1563 22.6128 44.1343C21.9336 43.0978 21.7891 43.0834 20.951 43.8751C20.8065 44.0191 20.6476 44.1487 20.5175 44.307C20.084 44.8972 19.6939 45.0555 19.2026 44.3358C18.7257 43.6304 18.191 43.5153 17.4974 44.2062C17.1506 44.5517 16.6449 44.4653 16.4715 43.7312C16.1536 42.4068 15.6189 42.2053 14.6218 42.8819C14.3762 43.0546 14.2028 43.3425 13.9716 43.5153C13.3358 43.9903 12.9456 43.7888 12.8445 42.9539C12.8156 42.7523 12.8445 42.5508 12.8445 42.3493C12.8156 41.8742 13.0034 41.2552 12.1942 41.3128C11.7607 41.3416 11.2839 41.3128 11.0093 42.1189C10.807 42.7379 9.83884 42.5796 9.44868 42.3924C8.87068 42.1189 9.24638 41.6151 9.56428 41.1689C9.72324 40.9529 9.76659 40.3051 9.56428 40.1468C9.36198 39.9885 9.00073 40.1468 8.74062 40.2332C7.16555 40.7658 7.0933 40.6938 7.33896 38.9376C7.44011 38.2322 7.48346 37.4837 6.32744 37.6276C5.87949 37.6852 5.34483 37.5557 4.94023 37.3397C4.60787 37.1526 3.95762 36.8071 4.75238 36.2889C4.99803 36.1306 5.25813 35.9002 5.38818 35.6411C5.63384 35.1517 5.67719 34.6623 4.89688 34.6191C4.49227 34.6047 4.08767 34.6335 3.68306 34.6047C2.90275 34.5471 2.975 34.0577 3.23511 33.5682C3.36516 33.3091 3.62526 33.0932 3.87091 32.9204C4.68012 32.3734 3.89981 32.1575 3.65416 31.8408C3.55301 31.6968 3.33626 31.6105 3.16286 31.5673C2.6571 31.4521 1.86234 31.8984 1.86234 30.8619C1.86234 30.2429 1.77564 29.7391 2.7438 29.6671C3.26401 29.6239 3.24956 28.8754 2.75825 28.5155C2.38255 28.242 1.90569 28.1125 1.48663 27.8965C1.18318 27.7382 0.691875 27.5366 0.677424 27.3495C0.662974 26.9321 0.836376 26.4426 1.08203 26.0971C1.28433 25.8236 1.74674 25.766 2.05019 25.5501C2.4259 25.2766 2.58485 25.0607 1.93459 24.8304C1.41438 24.6432 0.966428 24.197 0.518472 23.8371C0.243919 23.6212 -0.175136 23.3764 0.373971 22.9734C0.532923 22.8582 0.662974 22.6999 0.807476 22.5415C1.87679 21.3755 1.86234 21.3899 0.561823 20.1951C0.30172 19.9504 -0.0739849 19.7489 0.0127162 19.2162C0.0994172 18.6692 0.648524 18.9139 0.966428 18.77C1.31323 18.6117 1.68894 18.5109 1.99239 18.295C2.15134 18.1798 2.32474 17.7911 2.25249 17.6904C2.03574 17.3593 1.68894 17.1146 1.41438 16.8123C1.03868 16.3948 0.272819 16.0349 0.749675 15.3727C1.05313 14.9553 1.68894 14.7538 2.20914 14.5378C2.46925 14.4371 2.81605 14.5522 3.1195 14.509C3.29291 14.4802 3.53856 14.6098 3.62526 14.2787C3.72641 13.9332 3.23511 13.8037 3.14841 13.6453C2.7149 12.9112 1.48663 12.8104 2.00684 11.774C2.19469 11.3997 3.48076 11.5868 4.24662 11.4717C5.41708 11.2845 5.72054 10.3776 4.96913 9.41315C4.78128 9.16843 4.37667 8.98129 4.36222 8.76537C4.34777 8.46307 4.55007 8.06 4.78127 7.87287C4.96913 7.72892 5.37373 7.87287 5.67719 7.84408C6.891 7.72892 6.891 7.71452 6.29854 6.49093C6.09624 6.07347 5.80724 5.67041 5.67719 5.22416C5.63384 5.06581 5.87949 4.74912 6.06734 4.60517C6.22629 4.47561 6.55865 4.38924 6.6887 4.47561C7.02105 4.70593 7.23781 5.0946 7.58461 5.29613C7.78691 5.4113 8.27822 5.56964 8.39382 5.31053C8.50942 5.03702 8.16262 4.89307 8.13372 4.66275C8.07592 4.18771 7.94586 3.66948 8.07592 3.23763C8.17707 2.90654 8.46607 2.54666 8.92848 2.4171C9.37643 2.30194 9.34753 2.80577 9.54983 3.0361C9.66544 3.18005 9.78104 3.35279 9.80994 3.53993C9.91109 4.56198 10.3446 4.07255 10.6191 3.68388C10.8359 3.39597 10.966 3.00731 11.0238 2.64743C11.3128 0.920008 11.3272 0.876823 12.7433 1.99964C13.1624 2.33073 13.3647 2.35952 13.6248 1.94206C13.8849 1.42384 14.1594 0.920008 14.4484 0.430573C14.8241 -0.159628 15.1999 -0.0300718 15.5178 0.473759C15.6767 0.704081 15.7345 1.00638 15.8935 1.2367C16.3703 1.92767 17.4396 2.02844 17.6419 1.26549C17.902 0.315412 18.4367 0.531339 18.9714 0.545734C19.795 0.545734 19.4916 1.22231 19.5494 1.65416C19.665 2.58985 20.1274 2.54666 20.7343 2.08602C20.9799 1.89888 21.1533 1.63977 21.3845 1.45263C21.9481 1.00638 22.396 0.862428 22.6272 1.81251C22.7139 2.15799 23.0174 2.48908 23.3064 2.7338C23.8989 3.23763 24.6358 2.99291 25.0549 2.20118C25.2716 1.78372 25.4161 1.32307 25.6907 0.948799C25.8207 0.747267 26.1531 0.56013 26.3698 0.574525C26.5577 0.58892 26.8033 0.891218 26.8756 1.10715C27.1068 1.69735 26.3987 2.67622 27.3525 2.92093C28.5518 3.22323 28.0027 1.71174 28.7108 1.33747C28.9709 1.20791 29.0287 0.675291 29.2165 0.358597C29.4766 -0.0876524 29.809 -0.145233 30.0691 0.344202C30.2858 0.761662 30.517 1.20791 30.5459 1.65416C30.5893 2.4315 31.0806 2.31634 31.5864 2.34513C32.2655 2.38831 32.4823 2.08602 32.41 1.45263C32.3378 0.891218 32.4389 0.430573 33.1614 0.516944C33.6094 0.56013 33.9706 0.459363 34.2885 1.12154C34.9388 2.4315 35.0689 2.35952 35.9648 1.5246C37.1641 0.401783 37.3953 0.473759 37.9011 2.07162C38.0022 2.38831 38.219 2.90654 38.4068 2.90654C38.8981 2.93533 39.664 3.29521 39.7363 2.25876C39.7796 1.5534 40.1987 1.74053 40.401 2.1436C40.6611 2.63303 40.8345 3.19444 40.9212 3.74146C41.1379 4.99384 41.557 5.26734 42.2506 4.24529C43.0742 3.0361 43.9413 3.89981 44.2014 4.15892C44.4615 4.41803 44.606 4.99384 44.5048 5.109C43.7534 5.85755 44.0569 6.05908 44.9239 5.9871C45.5452 5.92952 45.892 6.10226 45.8342 6.79323C45.7909 7.28267 45.9209 7.90166 45.6608 8.23275C44.5771 9.64347 45.5163 9.60029 46.5567 9.68666C46.7446 9.70105 47.0047 10.2481 47.0047 10.5504C47.0047 10.7663 46.6434 11.0254 46.3978 11.1838C45.5452 11.7308 46.0799 12.1626 46.5567 12.4649C46.8602 12.6521 47.2937 12.6377 47.6839 12.6808C48.4497 12.7816 48.3919 13.2567 48.1174 13.7317C47.9151 14.0628 47.496 14.2787 47.2793 14.6098C46.6868 15.5167 47.048 16.2221 48.1463 16.3372C48.4497 16.366 48.8543 16.2221 49.0422 16.366C49.2734 16.5531 49.4468 16.9706 49.4323 17.2873C49.4179 17.5176 49.0855 17.7335 48.8977 17.9639C48.7098 18.1942 49.0133 20.3967 49.2589 20.6558C49.7213 21.1452 49.4612 21.4907 49.1144 21.9225C48.2474 23.0022 48.3052 23.0022 49.3601 23.8227C49.7502 24.125 50.4583 24.4993 49.5768 25.1039C49.2445 25.3342 48.9844 25.6509 48.7098 25.9532C48.0885 26.6441 48.0596 27.3351 48.7243 28.0261C48.8688 28.17 49.0277 28.2996 49.1578 28.4579C49.7647 29.2785 49.6202 29.5664 48.6087 29.7247C48.0885 29.8111 47.1637 29.2929 47.1348 30.1854C47.1203 30.5596 46.8746 31.121 46.9613 31.5673C47.0336 31.9128 47.785 32.0855 48.0162 32.2151C48.2474 32.3446 48.2474 32.9924 48.1029 33.1796C47.8139 33.525 47.3371 33.9137 46.918 33.9281C45.6175 33.9857 45.6464 34.3168 46.2533 35.3532C46.8313 36.3321 46.5856 36.5192 45.2996 37.0374C45.025 37.1526 44.7216 37.4837 44.6638 37.7572C44.5626 38.2466 44.606 38.7649 44.6349 39.2687C44.6782 39.9741 44.317 40.0748 43.7101 40.0748C43.0309 40.0748 42.1494 39.8445 41.6581 40.2764C41.1668 40.6938 40.8778 41.6871 41.2969 42.594C41.3836 42.8387 41.2824 43.7312 40.9934 43.8751ZM4.28997 21.0876C4.17437 24.7152 5.11363 28.1556 6.13959 31.5817C6.35634 32.287 6.7465 32.9924 7.23781 33.5538C8.74062 35.2812 10.4024 36.9079 12.3821 38.0451C14.5351 39.2831 16.8327 40.2188 19.4627 40.118C22.8151 39.9741 26.182 40.1468 29.5344 40.046C30.6615 40.0172 31.9476 40.809 32.6412 40.6938C33.3348 40.5787 35.329 40.1468 36.6584 40.1324C38.4068 40.118 39.664 39.3551 40.7189 38.1315C41.2824 37.4837 41.7882 36.7639 42.2361 36.0154C43.6089 33.741 44.736 31.3946 45.2562 28.7314C45.5886 26.9896 45.5597 25.2046 45.9209 23.5204C46.2099 22.1673 46.6145 21.1308 45.9498 19.6913C45.4296 18.5541 45.762 17.1002 45.0395 15.8046C43.9124 13.7605 42.7419 11.6156 42.2795 9.36996C41.6581 6.37577 39.1872 5.74238 37.1352 4.92186C35.5602 4.28847 33.4793 4.56198 31.702 4.83549C26.471 5.64162 24.1301 5.6848 20.1418 4.43243C17.6564 3.65509 15.0698 4.02936 13.0179 5.12339C10.5324 6.43335 7.80136 8.03121 7.33896 11.3997C7.31006 11.6588 7.13665 11.9323 6.9777 12.1482C4.88243 14.7681 4.17437 17.8055 4.28997 21.0876Z" fill="white"/>
<path d="M17.6263 13.2997C16.9182 13.2997 16.1957 13.3141 15.4877 13.2997C14.0282 13.2565 13.9848 13.2709 13.4646 11.4571C13.2479 10.7229 12.8433 10.7229 12.4098 11.0252C11.9907 11.3131 11.6728 11.7306 11.1382 11.2987C10.907 11.1116 10.7335 11.0828 10.6468 10.6222C10.5601 10.1615 11.5861 10.0032 11.7595 9.78724C12.9444 8.31893 14.5773 7.91587 16.3547 7.59917C18.2621 7.25369 18.2043 7.2249 21.1232 7.74313C22.2792 7.94466 23.3774 8.1174 24.4034 8.69321C25.3282 9.21143 26.1374 9.21143 27.12 8.53486C29.8222 6.66349 33.0013 7.05216 36.0069 7.29688C37.3074 7.39764 38.9258 7.88708 39.6628 9.35538C39.7495 9.52812 39.3882 10.1903 39.2004 10.2047C38.7524 10.2335 38.0155 10.1615 37.871 9.888C37.293 8.79397 36.0936 9.24022 35.2699 8.67881C34.4463 8.103 31.7586 8.96671 31.3684 9.05308C30.5447 9.24022 29.2009 9.3122 29.0275 9.77284C28.6807 10.7085 27.5536 11.1116 27.5391 12.0041C27.5102 13.0549 27.0622 14.1922 27.8426 15.1998C28.0593 15.4877 28.0882 15.9196 28.2905 16.2219C29.1575 17.4311 28.8396 18.4243 27.8281 19.3456C27.4958 19.6479 27.2645 20.051 26.99 20.4109C27.4669 20.4684 27.9582 20.5692 28.435 20.5836C29.1431 20.6124 29.8656 20.67 30.5736 20.5692C31.4262 20.4396 32.1198 20.9003 32.2788 21.5049C32.4522 22.1815 32.7267 23.074 31.9753 23.7505C31.3106 24.3407 30.8048 25.0173 29.6777 24.8878C27.6258 24.6718 25.5161 25.1901 23.5075 24.2832C23.3052 24.1968 21.5856 23.9953 21.47 24.5855C21.3544 25.1757 22.9728 25.3484 23.2474 25.4492C26.6287 26.6871 29.8945 25.9818 33.1602 24.8734C36.6138 23.7074 40.5298 25.4204 40.8911 29.5806C41.0789 31.7686 40.9633 33.8415 39.1137 35.5546C37.9432 36.6342 37.5386 36.6486 35.7324 37.1668C34.2006 37.6131 34.1717 36.4902 33.6226 36.0008C33.1458 35.5834 33.6804 34.0143 34.2729 33.6112C34.663 33.3521 35.111 33.1794 35.5156 32.949C37.5675 31.8118 37.8276 29.8973 36.2092 28.357C35.689 27.8676 35.3711 27.7956 34.6919 28.213C33.9116 28.6881 32.8712 28.7313 32.0476 29.1487C31.2961 29.523 30.617 30.5594 31.195 31.1065C32.221 32.0709 31.1372 33.5536 32.3221 34.3598C32.4955 34.4749 32.7123 35.353 32.2932 35.9432C31.8742 36.519 30.9349 36.0584 30.5303 35.6409C30.1257 35.2235 29.1142 33.4817 28.6807 33.0642C28.2472 32.6323 27.5969 33.3233 27.5247 33.4961C26.9466 34.7772 26.7877 35.9288 26.2241 37.21C26.1374 37.4115 25.7762 37.6131 25.5594 37.5843C25.3716 37.5699 25.1115 37.282 25.0392 37.0517C24.6057 35.6121 24.23 34.1438 23.7821 32.7043C23.7098 32.4884 23.4497 32.2005 23.2618 32.1717C23.0451 32.1573 22.5971 32.1141 22.3226 32.618C22.048 33.1218 19.6638 35.425 19.1147 35.5977C18.5655 35.7849 18.3632 35.2811 18.3199 34.4461C18.2765 33.6112 19.5048 32.2149 19.8372 31.4375C20.1117 30.8186 19.0135 30.07 20.0684 29.2495C20.6175 28.832 19.9528 28.0115 18.9846 27.8388C18.5222 27.7668 18.0598 27.6228 17.6118 27.4645C16.0946 26.9607 14.4617 28.0115 14.0571 28.7169C13.6525 29.4222 12.6988 30.7178 13.9704 31.8982C14.2449 32.1573 14.2016 32.7475 14.8663 32.7187C15.3432 32.7043 15.9212 32.6755 16.3113 32.8915C16.8171 33.1794 17.6841 33.4097 17.6263 34.1438C17.5685 34.878 17.8864 36.5622 16.3547 36.9365C14.8229 37.3252 10.4301 35.2523 9.85209 33.021C9.25963 30.7034 9.63534 28.2274 11.0804 26.3273C12.1641 24.9021 13.9559 24.1104 15.9356 24.168C16.7448 24.1968 17.5685 24.1824 18.3777 24.168C19.5915 24.1392 19.5915 24.1392 19.158 22.8724C18.8401 21.9511 19.8805 20.6124 21.0365 20.526C21.8457 20.4684 22.6694 20.526 23.4786 20.5116C23.7532 20.4972 24.0422 20.3965 24.3167 20.3389C24.1867 20.123 24.0855 19.8638 23.8977 19.7055C22.7561 18.741 23.1896 17.5606 23.3919 16.409C23.4931 15.8476 23.5075 15.1422 23.8543 14.7968C25.1693 13.458 24.3456 12.1193 23.6954 11.0828C22.9439 9.85921 21.7301 8.89474 20.0539 8.96671C18.7389 9.02429 17.424 8.96671 16.1235 9.08187C15.82 9.11066 15.1553 9.47054 15.1264 9.83042C15.0975 10.1903 15.8345 10.1903 16.0946 10.1615C16.9471 10.0751 17.7997 10.4062 18.6667 9.67208C19.0568 9.34099 20.0828 9.6145 20.892 9.85921C22.1781 10.2479 22.048 11.0396 21.9758 11.8601C21.9035 12.7526 21.34 13.2421 20.3718 13.2133C19.4615 13.2709 18.5366 13.2997 17.6263 13.2997ZM20.7475 22.6709C20.762 23.4338 21.3978 23.5778 21.7012 23.5922C22.5682 23.6498 23.522 23.693 24.3167 23.3907C25.675 22.8868 26.9611 22.6853 28.2183 23.4626C29.3309 24.168 31.0794 23.4338 30.9782 22.5557C30.8771 21.692 28.4061 21.5625 27.3946 21.908C25.5305 22.5126 23.8832 22.7141 22.0914 21.8648C21.8313 21.7496 20.7475 21.9224 20.7475 22.6709ZM38.5068 28.5873C38.8247 29.4798 38.9403 30.1564 38.738 30.8905C38.5357 31.6247 38.1166 32.2149 37.7843 32.5748C37.0762 33.3377 36.3682 34.0719 35.5011 34.5181C34.244 35.1659 35.2121 35.6409 35.3566 35.6697C35.8769 35.7993 36.8161 35.8425 37.1196 35.5834C38.5935 34.2878 40.0963 32.9346 39.7928 30.6314C39.6917 29.9548 39.5616 29.048 39.4749 28.6161C39.4027 28.1842 38.8247 27.6084 38.1022 26.7447C37.3797 25.881 36.0358 25.5787 35.7901 25.5931C35.5445 25.6075 34.3307 25.8378 33.7671 25.7371C33.0591 25.6075 32.6111 26.4136 31.9898 26.6152C30.5736 27.0758 29.0708 27.2917 27.6692 27.8819C26.701 28.285 25.8195 27.5653 24.8947 27.3349C24.8947 27.3349 22.2214 27.047 21.2099 26.6152C20.1984 26.1833 18.1176 25.3772 16.0079 25.6075C13.8981 25.8378 12.4965 27.4069 12.2797 27.594C11.4127 28.2994 11.2393 28.0547 10.9503 28.9184C10.6613 29.7821 10.9214 31.0345 11.037 31.2792C11.4994 32.402 11.8462 33.64 12.5976 34.5325C13.0456 35.0651 14.1727 35.0363 14.9964 35.1947C15.242 35.2379 15.6177 35.4538 15.8056 34.9932C15.9934 34.5325 15.401 34.3022 15.0975 34.1582C14.5917 33.9279 13.7247 34.0287 13.5224 33.6832C12.9444 32.7475 12.5543 31.6679 12.2508 30.6026C11.9618 29.595 12.7421 28.8176 13.0889 27.9539C13.1756 27.7236 14.3605 26.7303 16.5714 26.4712C17.7997 26.3273 19.7505 26.6152 20.762 27.047C21.7735 27.4789 24.0277 28.2562 24.7069 28.4434C25.386 28.6305 26.3108 28.4865 27.1056 28.4865C28.3628 28.4865 29.6055 28.6305 30.8048 27.9539C31.773 27.4069 32.8568 27.0614 33.9261 26.7303C34.4463 26.572 34.7642 26.428 35.5734 26.5288C36.3826 26.6296 37.5386 27.3493 37.5386 27.3493C37.5386 27.3493 38.1889 27.6804 38.5068 28.5873ZM17.2939 12.6375C17.9297 12.5799 18.3199 12.2632 19.2303 12.1049C19.7649 12.0185 20.3429 12.0041 20.1262 11.3419C19.7505 10.2191 19.158 11.0396 18.7245 11.1836C18.291 11.3275 16.8026 11.4427 15.6177 11.4715C15.3143 11.4859 14.9241 11.3419 14.7362 11.8313C14.5484 12.3208 15.2131 12.2776 15.5455 12.4647C15.7911 12.6231 16.6581 12.6951 17.2939 12.6375Z" fill="white"/>
<path d="M43.3338 18.2367C43.3049 19.6763 43.1171 21.3461 41.9755 22.2386C41.253 22.8144 39.7646 23.3326 39.1144 23.1311C37.7416 22.7136 36.5712 22.8 35.4874 21.5764C34.7504 20.7415 34.0424 20.0793 34.158 18.755C34.2736 17.3011 34.6348 16.0487 35.7475 15.1562C36.8024 14.3213 38.0884 13.9902 39.4756 13.8462C40.8918 13.7023 41.3686 14.7675 42.1923 15.4153C43.2182 16.2646 43.3772 16.7972 43.3338 18.2367ZM38.9265 15.732C36.4555 15.7176 35.314 16.7253 35.4729 18.9277C35.5163 19.4459 35.8197 20.1225 36.2243 20.4104C37.0625 21.0006 38.0162 21.5764 38.9843 21.778C40.3137 22.0515 42.0767 19.9642 42.1489 18.2799C42.2356 16.6389 41.0941 15.7464 38.9265 15.732Z" fill="white"/>
<path d="M12.1648 22.5121C11.3989 22.3969 10.6042 22.3825 9.86723 22.1666C8.17656 21.6916 7.902 20.0217 7.42515 18.7262C7.04944 17.6897 7.09279 16.3366 8.40776 15.5592C8.82682 15.3145 9.11582 14.8539 9.49152 14.5084C11.1388 13.0401 11.659 12.9681 13.5665 13.9038C13.8988 14.0622 14.1878 14.3788 14.5346 14.494C15.5461 14.8107 16.4421 15.4585 16.4421 16.4374C16.4565 17.7473 16.7889 19.1868 15.6039 20.5832C14.4046 21.9939 13.7977 22.7136 12.1648 22.5121ZM9.17362 18.8845C9.20252 18.9565 9.26032 19.777 9.69383 20.1369C10.3874 20.7127 11.1966 21.2453 12.2515 21.2309C13.9133 21.2165 15.286 19.777 15.286 18.208C15.2716 16.5813 13.9855 15.185 12.3382 15.1274C10.2718 15.041 9.15917 16.1495 9.17362 18.8845Z" fill="white"/>
<path d="M31.9618 14.422C32.323 14.6524 32.4531 15.3865 32.323 15.732C32.1496 16.207 31.615 16.8404 31.2104 16.8548C30.7913 16.8692 30.2422 16.3078 29.9532 15.8616C29.6209 15.3577 29.9821 14.6236 30.2856 14.3501C30.589 14.0766 31.6005 14.1917 31.9618 14.422ZM29.8665 13.3568C29.274 12.8818 29.0284 12.781 28.7394 12.3635C28.277 11.7014 29.1006 10.3194 29.9821 10.2762C31.2971 10.2187 32.771 10.6361 33.8692 10.1467C34.7651 9.74362 35.0975 9.95955 35.8633 10.1755C36.7448 10.4346 36.6725 10.8377 36.6581 11.1256C36.6725 12.3204 36.0078 13.1409 34.9819 13.2848C34.1871 13.4 33.3635 13.2992 32.5687 13.3136C32.2508 13.3136 31.7595 13.3712 31.615 13.5151C31.4416 13.6591 30.4734 13.8318 29.8665 13.3568ZM33.19 12.3491C33.797 12.3491 35.1553 11.9749 35.2131 11.4854C35.2709 10.996 33.6091 11.2839 33.0455 11.3415C32.4531 11.3991 30.2422 11.2983 30.4445 11.9173C30.6613 12.5363 32.5976 12.3491 33.19 12.3491Z" fill="white"/>
<path d="M19.9968 16.9556C18.3351 16.97 18.364 16.97 18.3206 15.7464C18.2917 14.9403 18.3495 14.422 19.3899 14.5084C20.7627 14.6092 21.254 14.9403 21.3841 16.0631C21.5286 17.3011 20.6038 16.8692 19.9968 16.9556Z" fill="white"/>
<path d="M40.3141 18.3377C40.3864 19.2014 39.8517 19.8636 38.9847 19.9788C38.4501 20.0507 37.5253 20.0795 37.3085 19.0863C37.0917 18.093 37.4674 17.2293 38.4356 16.9414C39.4038 16.6679 40.2419 17.4452 40.3141 18.3377Z" fill="white"/>
<path d="M12.3528 19.3886C11.7314 19.3454 10.9078 19.6909 10.98 18.4817C11.0523 17.3876 11.4424 16.452 12.0927 16.3512C12.8008 16.236 13.4077 17.0709 13.451 18.2226C13.4944 19.3598 13.4944 19.3598 12.3528 19.3886Z" fill="white"/>
</svg>
